<?xml version="1.0" encoding="UTF-8"?>
<svg xmlns="http://www.w3.org/2000/svg" xmlns:xlink="http://www.w3.org/1999/xlink" width="162.056pt" height="162.056pt" viewBox="0 0 162.056 162.056" version="1.2">
<defs>
<clipPath id="clip1">
  <path d="M 0 135 L 26 135 L 26 161.117188 L 0 161.117188 Z M 0 135 "/>
</clipPath>
<clipPath id="clip2">
  <path d="M 135 135 L 161.117188 135 L 161.117188 161.117188 L 135 161.117188 Z M 135 135 "/>
</clipPath>
<clipPath id="clip3">
  <path d="M 135 0 L 161.117188 0 L 161.117188 26 L 135 26 Z M 135 0 "/>
</clipPath>
<clipPath id="clip4">
  <path d="M 0 0 L 161.117188 0 L 161.117188 161.117188 L 0 161.117188 Z M 0 0 "/>
</clipPath>
</defs>
<g id="surface1">
<path style=" stroke:none;fill-rule:nonzero;fill:rgb(0%,0%,0%);fill-opacity:1;" d="M 20.007813 151.015625 C 20.007813 145.542969 15.574219 141.109375 10.101563 141.109375 C 4.632813 141.109375 0.199219 145.542969 0.199219 151.015625 C 0.199219 156.484375 4.632813 160.917969 10.101563 160.917969 C 15.574219 160.917969 20.007813 156.484375 20.007813 151.015625 Z M 20.007813 151.015625 "/>
<g clip-path="url(#clip1)" clip-rule="nonzero">
<path style="fill:none;stroke-width:0.3985;stroke-linecap:butt;stroke-linejoin:miter;stroke:rgb(0%,0%,0%);stroke-opacity:1;stroke-miterlimit:10;" d="M 9.962361 -0.00131319 C 9.962361 5.503222 5.502941 9.962642 -0.00159441 9.962642 C -5.502201 9.962642 -9.961621 5.503222 -9.961621 -0.00131319 C -9.961621 -5.501919 -5.502201 -9.96134 -0.00159441 -9.96134 C 5.502941 -9.96134 9.962361 -5.501919 9.962361 -0.00131319 Z M 9.962361 -0.00131319 " transform="matrix(0.994209,0,0,-0.994209,10.103148,151.014319)"/>
</g>
<path style=" stroke:none;fill-rule:nonzero;fill:rgb(0%,0%,0%);fill-opacity:1;" d="M 160.921875 151.015625 C 160.921875 145.542969 156.488281 141.109375 151.015625 141.109375 C 145.546875 141.109375 141.109375 145.542969 141.109375 151.015625 C 141.109375 156.484375 145.546875 160.917969 151.015625 160.917969 C 156.488281 160.917969 160.921875 156.484375 160.921875 151.015625 Z M 160.921875 151.015625 "/>
<g clip-path="url(#clip2)" clip-rule="nonzero">
<path style="fill:none;stroke-width:0.3985;stroke-linecap:butt;stroke-linejoin:miter;stroke:rgb(0%,0%,0%);stroke-opacity:1;stroke-miterlimit:10;" d="M 151.697269 -0.00131319 C 151.697269 5.503222 147.237848 9.962642 141.733313 9.962642 C 136.232707 9.962642 131.769358 5.503222 131.769358 -0.00131319 C 131.769358 -5.501919 136.232707 -9.96134 141.733313 -9.96134 C 147.237848 -9.96134 151.697269 -5.501919 151.697269 -0.00131319 Z M 151.697269 -0.00131319 " transform="matrix(0.994209,0,0,-0.994209,10.103148,151.014319)"/>
</g>
<path style="fill-rule:nonzero;fill:rgb(0%,0%,0%);fill-opacity:1;stroke-width:0.3985;stroke-linecap:butt;stroke-linejoin:miter;stroke:rgb(0%,0%,0%);stroke-opacity:1;stroke-miterlimit:10;" d="M 9.962361 141.733594 C 9.962361 147.23813 5.502941 151.69755 -0.00159441 151.69755 C -5.502201 151.69755 -9.961621 147.23813 -9.961621 141.733594 C -9.961621 136.232988 -5.502201 131.769639 -0.00159441 131.769639 C 5.502941 131.769639 9.962361 136.232988 9.962361 141.733594 Z M 9.962361 141.733594 " transform="matrix(0.994209,0,0,-0.994209,10.103148,151.014319)"/>
<path style=" stroke:none;fill-rule:nonzero;fill:rgb(0%,0%,0%);fill-opacity:1;" d="M 160.921875 10.101563 C 160.921875 4.628906 156.488281 0.195313 151.015625 0.195313 C 145.546875 0.195313 141.109375 4.628906 141.109375 10.101563 C 141.109375 15.570313 145.546875 20.007813 151.015625 20.007813 C 156.488281 20.007813 160.921875 15.570313 160.921875 10.101563 Z M 160.921875 10.101563 "/>
<g clip-path="url(#clip3)" clip-rule="nonzero">
<path style="fill:none;stroke-width:0.3985;stroke-linecap:butt;stroke-linejoin:miter;stroke:rgb(0%,0%,0%);stroke-opacity:1;stroke-miterlimit:10;" d="M 151.697269 141.733594 C 151.697269 147.23813 147.237848 151.69755 141.733313 151.69755 C 136.232707 151.69755 131.769358 147.23813 131.769358 141.733594 C 131.769358 136.232988 136.232707 131.769639 141.733313 131.769639 C 147.237848 131.769639 151.697269 136.232988 151.697269 141.733594 Z M 151.697269 141.733594 " transform="matrix(0.994209,0,0,-0.994209,10.103148,151.014319)"/>
</g>
<g clip-path="url(#clip4)" clip-rule="nonzero">
<path style="fill:none;stroke-width:1.41731;stroke-linecap:butt;stroke-linejoin:miter;stroke:rgb(0%,0%,0%);stroke-opacity:1;stroke-miterlimit:10;" d="M 10.16274 -0.00131319 L 131.572908 -0.00131319 M 134.547164 7.184836 L 7.184555 134.547445 M 10.16274 141.733594 L 131.572908 141.733594 M 134.547164 134.547445 L 7.184555 7.184836 M -0.00159441 10.163021 L -0.00159441 131.573189 M 7.184555 134.547445 L 134.547164 7.184836 " transform="matrix(0.994209,0,0,-0.994209,10.103148,151.014319)"/>
</g>
<path style="fill:none;stroke-width:1.41731;stroke-linecap:butt;stroke-linejoin:miter;stroke:rgb(0%,0%,0%);stroke-opacity:1;stroke-miterlimit:10;" d="M 141.733313 10.163021 L 141.733313 131.573189 " transform="matrix(0.994209,0,0,-0.994209,10.103148,151.014319)"/>
</g>
</svg>
